<?xml version="1.0" encoding="utf-8"?>
<!-- Generator: Adobe Illustrator 24.0.3, SVG Export Plug-In . SVG Version: 6.00 Build 0)  -->
<svg version="1.1" id="Layer_1" xmlns="http://www.w3.org/2000/svg" xmlns:xlink="http://www.w3.org/1999/xlink" x="0px" y="0px"
	 viewBox="0 0 150 42" style="enable-background:new 0 0 150 42;" xml:space="preserve">
<style type="text/css">
	.st0{fill:#394149;}
</style>
<title>logo-5</title>
<path class="st0" d="M40.3,14.2h3v14.5h-3V14.2z"/>
<path class="st0" d="M45,23.8c0-2.9,2.4-5.2,5.3-5.2c2.9,0,5.2,2.4,5.2,5.3S53.1,29,50.2,29c0,0,0,0,0,0c-2.9,0-5.2-2.3-5.2-5.1
	C45,23.8,45,23.8,45,23.8z M52.5,23.8c0-1.3-1.1-2.3-2.3-2.2c-1.3,0-2.3,1.1-2.2,2.3c0,1.2,1,2.2,2.3,2.2c1.2,0,2.2-1,2.3-2.2
	C52.5,23.9,52.5,23.8,52.5,23.8L52.5,23.8z"/>
<path class="st0" d="M67.3,18.8v9.4c0,3.3-2.6,4.7-5.2,4.7c-1.9,0.2-3.7-0.8-4.7-2.4l2.5-1.5c0.4,0.8,1.3,1.3,2.3,1.2
	c1.1,0.1,2.1-0.6,2.2-1.7c0-0.1,0-0.3,0-0.4v-0.9c-0.7,0.9-1.8,1.3-2.9,1.3c-2.8,0-5-2.2-5-5s2.2-5,5-5c1.1-0.1,2.2,0.4,2.9,1.3v-1
	L67.3,18.8z M64.4,23.5c0.1-1.3-1-2.4-2.3-2.5c-1.3-0.1-2.4,1-2.5,2.3s1,2.4,2.3,2.5c0,0,0.1,0,0.1,0c1.2,0.1,2.3-0.8,2.4-2.1
	C64.4,23.7,64.4,23.6,64.4,23.5z"/>
<path class="st0" d="M69,23.8c0-2.9,2.4-5.2,5.3-5.2c2.9,0,5.2,2.4,5.2,5.3S77.1,29,74.2,29c0,0,0,0,0,0c-2.9,0-5.2-2.3-5.2-5.1
	C69,23.8,69,23.8,69,23.8z M76.5,23.8c0-1.3-1.1-2.3-2.3-2.2c-1.3,0-2.3,1.1-2.2,2.3c0,1.2,1,2.2,2.3,2.2c1.2,0,2.2-1,2.3-2.2
	C76.5,23.9,76.5,23.8,76.5,23.8L76.5,23.8z"/>
<path class="st0" d="M80.9,16.2c0-1,0.8-1.8,1.8-1.8c1,0,1.8,0.8,1.8,1.8s-0.8,1.8-1.8,1.8l0,0C81.7,17.9,80.9,17.1,80.9,16.2z
	 M81.2,18.8h3v9.9h-3V18.8z"/>
<path class="st0" d="M97,23.8c0.1,2.8-2,5.1-4.7,5.2c0,0,0,0,0,0c-1.1,0.1-2.2-0.4-3-1.2v4.9h-3V18.8h3v0.9c0.8-0.8,1.9-1.3,3-1.2
	C95,18.7,97.1,21,97,23.8C97,23.7,97,23.7,97,23.8z M94,23.8c0-1.3-1.1-2.3-2.4-2.3s-2.3,1.1-2.3,2.4c0,1.3,1.1,2.3,2.4,2.3
	c1.2,0.1,2.3-0.9,2.4-2.2C94,23.9,94,23.8,94,23.8z"/>
<path class="st0" d="M106.1,25.7c0,2.3-2,3.2-4.1,3.2c-1.8,0.2-3.5-0.8-4.3-2.4l2.6-1.5c0.2,0.7,0.9,1.2,1.7,1.2
	c0.7,0,1.1-0.2,1.1-0.6c0-1.1-4.9-0.5-4.9-3.9c0-2.2,1.8-3.2,3.9-3.2c1.6-0.1,3.1,0.7,3.9,2.1l-2.6,1.4c-0.2-0.5-0.8-0.9-1.3-0.9
	c-0.5,0-0.8,0.2-0.8,0.5C101.3,22.8,106.1,22.1,106.1,25.7z"/>
<path class="st0" d="M117,18.8v9.9h-3v-0.9c-0.7,0.8-1.7,1.3-2.8,1.2c-2,0-3.7-1.4-3.7-4.1v-6.1h3v5.7c-0.1,0.9,0.6,1.7,1.5,1.8
	c0.1,0,0.2,0,0.3,0c1.1,0,1.8-0.6,1.8-2v-5.5H117z"/>
<path class="st0" d="M134,22.6v6.1h-3v-5.8c0-1-0.5-1.6-1.4-1.6S128,22,128,23.1v5.6h-3v-5.8c0-1-0.5-1.6-1.4-1.6s-1.6,0.7-1.6,1.9
	v5.6h-3v-9.9h3v0.9c0.6-0.8,1.6-1.3,2.7-1.2c1-0.1,2,0.4,2.6,1.3c0.7-0.9,1.8-1.4,2.9-1.3C132.5,18.5,134,20.2,134,22.6z"/>
<path class="st0" d="M22.5,11.7V7.4H9v29.2h13.4v-4.2c-5.7,0-10.4-4.6-10.4-10.3S16.7,11.6,22.5,11.7z"/>
<path class="st0" d="M22.5,11.7v20.7c5.7,0,10.4-4.6,10.4-10.4S28.2,11.7,22.5,11.7L22.5,11.7z"/>
<circle class="st0" cx="136.5" cy="16.5" r="2.2"/>
</svg>
